<?xml version="1.0" standalone="no"?><!DOCTYPE svg PUBLIC "-//W3C//DTD SVG 1.1//EN" "http://www.w3.org/Graphics/SVG/1.1/DTD/svg11.dtd"><svg t="1694827747516" class="icon" viewBox="0 0 1024 1024" version="1.1" xmlns="http://www.w3.org/2000/svg" p-id="1607" width="64" height="64" xmlns:xlink="http://www.w3.org/1999/xlink"><path d="M216.952755 692.99683l0.038641-0.038641c-0.115925 0.077283-0.115925 0.077283-0.038641 0.038641z" p-id="1608"></path><path d="M49.383849 684.360453l-0.811472-259.57434c0.231849 0.444377 0.560302 0.888755 0.772831 1.352453 14.490566 27.648 41.133887 60.222792 74.558792 86.383094l0.985358 315.430642c-49.345208-42.737509-75.350943-92.024755-75.505509-143.591849z m85.880755-189.478642c-2.511698-1.990038-4.888151-4.018717-7.283925-6.028075-61.903698-52.127396-82.44166-108.118943-79.388981-156.614038 4.192604-66.270189 51.876226-128.927396 134.279245-176.495094 161.714717-93.357887 412.826566-103.752453 594.055246-31.357585L135.245283 494.881811z m77.05117 206.790038l0.579622 91.425811-67.236226 38.757434-0.966038-318.521962L789.793811 140.886943l0.521661 125.971321-195.06234 112.562717a10.375245 10.375245 0 0 0-5.177962 8.94551v0.077283l0.753509 180.938868-74.365585-43.23985a10.24 10.24 0 0 0-10.375245-0.01932C261.796226 667.107019 218.324528 692.359245 216.972075 692.99683a10.549132 10.549132 0 0 0-4.636981 8.675019z m561.963471-1.661585c-162.332981 64.144906-372.23366 62.483321-528.268075 0.077283l265.235321-153.059019 263.032754 152.981736zM234.206189 894.261132l-1.101283-176.939472c85.417057 34.970566 183.064151 50.794264 276.827773 50.794265 92.527094 0 186.677132-14.722415 274.296755-49.828227 1.004679-0.386415 2.125283-0.734189 3.091321-1.120604l1.120603 177.113359c-164.999245 70.385509-390.684981 70.40483-554.235169-0.019321z m574.290113-103.037585l-0.579623-89.686943a11.418566 11.418566 0 0 0-4.714264-8.617057c-2.067321-1.352453-189.536604-111.616-191.603924-111.480755l-0.772831-175.007396 265.795623 154.469434c0.347774 97.994868 0.579623 168.940679 0.966038 270.58717l-69.091019-40.264453z m77.57283-248.774038l-264.984151-154.005735c87.407094-50.407849 142.123472-81.842717 266.684377-153.947774 56.107472 44.225208 86.904755 98.361962 86.904755 153.07834 0 62.541283-39.105208 115.924528-88.604981 154.875169z m12.172076 285.560755c-0.019321-9.602415-0.193208-62.947019-0.927397-267.978868 31.299623-24.266868 60.087547-55.257358 77.630793-90.36317l0.753509 212.122566c0.193208 52.436528-26.488755 102.670491-77.437585 146.238793z" p-id="1609"></path></svg>