<?xml version="1.0" standalone="no"?>
<!DOCTYPE svg PUBLIC "-//W3C//DTD SVG 20010904//EN"
 "http://www.w3.org/TR/2001/REC-SVG-20010904/DTD/svg10.dtd">
<svg version="1.0" xmlns="http://www.w3.org/2000/svg"
 width="48.000000pt" height="48.000000pt" viewBox="0 0 48.000000 48.000000"
 preserveAspectRatio="xMidYMid meet">

<g transform="translate(0.000000,48.000000) scale(0.100000,-0.100000)"
fill="#55bfce" stroke="none">
<path d="M331 350 c-26 -27 -48 -40 -67 -41 -16 0 -23 -3 -16 -6 25 -10 82 7
82 25 0 9 12 26 28 39 15 12 24 22 19 23 -4 0 -24 -18 -46 -40z"/>
<path d="M215 341 c-3 -5 -1 -12 5 -16 5 -3 10 1 10 9 0 18 -6 21 -15 7z"/>
<path d="M34 305 c-9 -14 -15 -27 -13 -30 3 -2 12 10 21 26 21 36 15 39 -8 4z"/>
<path d="M290 268 c-19 -16 -26 -26 -15 -20 18 9 64 53 54 52 -2 -1 -20 -15
-39 -32z"/>
<path d="M13 215 c0 -27 2 -38 4 -22 2 15 2 37 0 50 -2 12 -4 0 -4 -28z"/>
<path d="M208 224 c-16 -8 -28 -19 -28 -23 0 -5 -8 -7 -19 -4 -20 5 -75 -19
-87 -39 -6 -10 -4 -10 7 -2 8 6 24 11 37 12 16 0 22 -5 22 -22 0 -12 -5 -27
-11 -33 -8 -8 -8 -16 1 -30 10 -15 11 -15 6 -1 -3 10 0 20 6 24 6 4 8 23 5 46
-5 34 -3 38 13 33 10 -3 21 -1 25 5 4 7 21 20 39 31 36 22 24 25 -16 3z"/>
<path d="M21 155 c0 -16 21 -48 61 -94 36 -42 58 -47 58 -13 0 15 -2 15 -10 2
-7 -12 -16 -6 -47 29 -21 24 -43 54 -50 65 -7 12 -12 17 -12 11z"/>
</g>
</svg>
